<?xml version="1.0" standalone="no"?>
<!DOCTYPE svg PUBLIC "-//W3C//DTD SVG 20010904//EN"
 "http://www.w3.org/TR/2001/REC-SVG-20010904/DTD/svg10.dtd">
<svg version="1.0" xmlns="http://www.w3.org/2000/svg"
 width="820.000000pt" height="820.000000pt" viewBox="0 0 820.000000 820.000000"
 preserveAspectRatio="xMidYMid meet">
<metadata>
Created by potrace 1.11, written by Peter Selinger 2001-2013
</metadata>
<g transform="translate(0.000000,820.000000) scale(0.100000,-0.100000)"
fill="#000000" stroke="none">
<path d="M3771 7870 c-39 -9 -70 -24 -126 -60 -22 -14 -65 -39 -95 -54 -57
-30 -129 -77 -152 -98 -7 -7 -40 -33 -72 -58 -33 -25 -136 -112 -228 -193
-182 -159 -207 -175 -358 -214 -8 -2 -40 -4 -70 -4 -128 0 -184 -114 -122
-244 60 -122 145 -210 216 -222 31 -5 46 4 174 102 91 69 141 114 144 128 1
12 3 59 3 104 0 76 10 99 18 43 2 -14 14 -30 27 -37 33 -16 16 -24 445 203 61
32 142 74 180 94 66 33 71 38 92 91 12 30 25 70 28 89 5 29 23 73 25 60 0 -3
3 -54 6 -115 7 -120 16 -145 76 -201 36 -35 160 -124 201 -145 l26 -14 -254
-415 c-139 -228 -268 -439 -285 -467 l-30 -53 -343 0 -343 0 -93 -392 c-51
-216 -95 -404 -97 -418 -3 -14 -14 -59 -25 -101 -11 -42 -21 -85 -23 -95 -5
-22 -58 -249 -88 -374 -11 -47 -21 -92 -23 -100 -2 -8 -13 -55 -25 -105 -12
-49 -23 -97 -25 -105 -38 -181 -71 -289 -99 -327 -17 -23 -50 -70 -74 -105
-24 -35 -69 -100 -100 -145 -31 -45 -100 -144 -152 -220 -52 -75 -128 -185
-168 -243 -40 -58 -99 -143 -130 -190 -31 -47 -59 -87 -63 -90 -3 -3 -23 -30
-42 -60 -20 -30 -51 -75 -68 -100 -32 -45 -91 -130 -192 -277 -179 -260 -425
-615 -455 -658 -34 -49 -29 -48 33 10 104 98 313 293 426 400 72 68 207 195
383 360 24 22 96 90 161 150 65 61 137 128 160 150 45 43 100 95 264 245 57
52 114 104 125 115 12 11 47 43 77 70 30 28 104 96 164 152 61 55 124 114 141
130 99 91 223 204 245 225 27 24 212 195 259 238 102 95 239 221 261 241 15
13 64 58 110 100 46 42 100 92 120 110 36 34 232 215 253 234 11 10 260 239
282 260 11 10 180 165 234 215 15 14 71 65 124 114 53 49 105 96 115 105 24
21 216 199 304 281 138 128 307 302 307 313 0 46 -132 209 -210 260 -49 32
-26 29 50 -6 62 -29 118 -69 162 -114 238 -247 274 -278 418 -360 68 -39 218
-103 241 -103 20 0 159 -70 159 -80 0 -8 109 -59 143 -66 140 -30 295 43 326
153 58 205 69 468 34 868 -10 119 -9 145 13 230 12 51 53 133 82 167 21 24 29
45 31 78 4 88 -69 152 -189 167 -130 15 -222 2 -270 -38 -25 -21 -25 -22 -25
-203 0 -111 3 -185 10 -191 5 -6 32 -28 60 -50 27 -22 59 -48 70 -59 20 -18
20 -18 -10 -3 -44 21 -80 5 -90 -40 -2 -10 -33 -136 -69 -281 -36 -145 -66
-270 -66 -278 0 -27 -15 -13 -39 38 -46 99 -123 154 -253 182 -35 8 -52 15
-38 16 32 2 73 9 77 14 6 5 11 42 18 126 9 109 19 139 71 205 78 101 101 165
94 260 -7 92 1 213 17 268 7 27 -103 126 -195 175 -218 115 -470 74 -601 -100
-38 -51 -147 -265 -139 -274 2 -2 26 -15 52 -29 60 -32 116 -74 116 -87 0 -7
-4 -7 -12 0 -24 19 -110 61 -171 84 -50 18 -84 23 -178 24 -108 1 -118 3 -150
26 -84 63 -170 88 -304 88 -95 0 -120 -6 -192 -45 -35 -19 -63 -33 -63 -31 0
3 19 26 67 79 13 16 23 30 21 31 -2 1 -37 29 -78 63 -107 86 -196 145 -299
198 -49 25 -113 68 -142 95 -105 96 -232 137 -338 110z"/>
<path d="M4533 4207 c-78 -50 -212 -137 -298 -192 -432 -278 -440 -284 -436
-313 3 -24 164 -669 236 -947 65 -249 96 -371 99 -385 10 -41 199 -783 217
-849 12 -42 22 -84 24 -94 2 -9 6 -21 10 -26 3 -5 130 -107 283 -227 152 -119
306 -240 342 -269 36 -28 85 -67 110 -85 25 -19 47 -37 50 -40 3 -3 88 -71
190 -150 102 -79 235 -183 297 -232 101 -80 132 -101 120 -80 -3 4 -17 50 -31
102 -14 52 -62 228 -106 390 -45 162 -83 302 -85 310 -1 8 -10 40 -19 71 -9
31 -19 65 -21 75 -9 38 -23 92 -70 259 -26 94 -49 177 -51 185 -2 8 -19 74
-39 145 -49 177 -50 182 -160 585 -52 195 -102 378 -111 405 -14 50 -112 407
-119 435 -3 15 -32 120 -101 375 -20 72 -53 191 -74 265 -21 74 -53 190 -71
257 -19 68 -36 123 -39 123 -3 0 -69 -42 -147 -93z"/>
<path d="M3438 3500 c-32 -22 -60 -40 -64 -40 -3 0 -16 -8 -29 -17 -29 -23
-22 -18 -264 -173 -112 -72 -242 -156 -290 -188 -47 -31 -94 -61 -104 -67 -55
-31 -559 -360 -566 -369 -6 -8 -46 -164 -67 -261 -1 -5 -10 -41 -19 -80 -9
-38 -18 -79 -21 -90 -2 -11 -6 -29 -8 -40 -5 -24 -54 -230 -63 -265 -7 -29 -6
-23 -28 -115 -9 -38 -18 -77 -20 -85 -2 -8 -9 -37 -15 -65 -6 -27 -13 -57 -15
-65 -2 -8 -35 -150 -75 -315 -39 -165 -74 -311 -76 -325 -3 -14 -14 -59 -24
-100 -10 -41 -21 -86 -24 -100 -2 -14 -7 -32 -10 -40 -3 -8 -7 -26 -10 -40 -2
-14 -11 -52 -19 -85 -9 -33 -18 -73 -21 -90 -3 -16 -14 -63 -24 -103 -10 -39
-17 -72 -15 -72 5 0 315 230 1210 899 l182 136 36 145 c20 80 38 152 40 160 2
8 20 80 40 160 20 80 38 152 40 160 2 8 69 278 150 600 81 322 149 592 150
600 2 8 8 30 14 48 5 17 8 32 5 32 -3 0 0 8 5 18 5 9 11 31 15 47 3 17 14 66
25 110 30 115 30 115 23 115 -4 0 -33 -18 -64 -40z"/>
</g>
</svg>
